HIERARCHY
ROOT Hips
{
  OFFSET 0 0.240689 0
  CHANNELS 6 Xposition Yposition Zposition Zrotation Xrotation Yrotation
  JOINT Bip01_Spine0
  {
    OFFSET 0 -24.7459 49.7988
    CHANNELS 6 Xposition Yposition Zposition Zrotation Xrotation Yrotation
    JOINT Bip01_Pelvis
    {
      OFFSET 0 0 0
      CHANNELS 6 Xposition Yposition Zposition Zrotation Xrotation Yrotation
      JOINT Bip01_Spine0_Tail
      {
        OFFSET -6.47486 -3.86022 0
        CHANNELS 6 Xposition Yposition Zposition Zrotation Xrotation Yrotation
        JOINT Bip01_Spine0_Tail1
        {
          OFFSET 10.3837 -0.00825882 0
          CHANNELS 6 Xposition Yposition Zposition Zrotation Xrotation Yrotation
          JOINT Bip01_Spine0_Tail2
          {
            OFFSET 10.3837 -0.00826263 0
            CHANNELS 6 Xposition Yposition Zposition Zrotation Xrotation Yrotation
            JOINT Bip01_Spine0_Tail3
            {
              OFFSET 10.3837 -0.00825882 0
              CHANNELS 6 Xposition Yposition Zposition Zrotation Xrotation Yrotation
              JOINT Bip01_Spine0_Tail4
              {
                OFFSET 10.3837 -0.00826263 0
                CHANNELS 6 Xposition Yposition Zposition Zrotation Xrotation Yrotation
                End Site
                {
                  OFFSET 0 0 0
                }
              }
            }
          }
        }
      }
      JOINT Bip01_R_Thigh
      {
        OFFSET 0 -1.52588e-005 -8.75617
        CHANNELS 6 Xposition Yposition Zposition Zrotation Xrotation Yrotation
        JOINT Bip01_R_Calf
        {
          OFFSET 19.7638 0 0
          CHANNELS 6 Xposition Yposition Zposition Zrotation Xrotation Yrotation
          JOINT Bip01_R_Foot
          {
            OFFSET 18.6534 0 0
            CHANNELS 6 Xposition Yposition Zposition Zrotation Xrotation Yrotation
            JOINT Bip01_R_Toe0
            {
              OFFSET 5.09145 13.9567 0
              CHANNELS 6 Xposition Yposition Zposition Zrotation Xrotation Yrotation
              JOINT Bip01_R_Toe01
              {
                OFFSET 4.28803 0 0
                CHANNELS 6 Xposition Yposition Zposition Zrotation Xrotation Yrotation
                JOINT Bip01_R_Toe02
                {
                  OFFSET 3.85801 0 0
                  CHANNELS 6 Xposition Yposition Zposition Zrotation Xrotation Yrotation
                  End Site
                  {
                    OFFSET 0 0 0
                  }
                }
              }
            }
          }
        }
      }
      JOINT Bip01_L_Thigh
      {
        OFFSET 0 1.52588e-005 8.75617
        CHANNELS 6 Xposition Yposition Zposition Zrotation Xrotation Yrotation
        JOINT Bip01_L_Calf
        {
          OFFSET 19.7638 0 0
          CHANNELS 6 Xposition Yposition Zposition Zrotation Xrotation Yrotation
          JOINT Bip01_L_Foot
          {
            OFFSET 18.6534 0 0
            CHANNELS 6 Xposition Yposition Zposition Zrotation Xrotation Yrotation
            JOINT Bip01_L_Toe0
            {
              OFFSET 5.09144 13.9567 0
              CHANNELS 6 Xposition Yposition Zposition Zrotation Xrotation Yrotation
              JOINT Bip01_L_Toe01
              {
                OFFSET 4.28802 0 0
                CHANNELS 6 Xposition Yposition Zposition Zrotation Xrotation Yrotation
                JOINT Bip01_L_Toe02
                {
                  OFFSET 3.85801 0 0
                  CHANNELS 6 Xposition Yposition Zposition Zrotation Xrotation Yrotation
                  End Site
                  {
                    OFFSET 0 0 0
                  }
                }
              }
            }
          }
        }
      }
      JOINT Bip01_Spine
      {
        OFFSET 9.14835 -0.00640869 -1.1e-005
        CHANNELS 6 Xposition Yposition Zposition Zrotation Xrotation Yrotation
        JOINT Bip01_Spine1
        {
          OFFSET 8.04366 -0.00638199 0
          CHANNELS 6 Xposition Yposition Zposition Zrotation Xrotation Yrotation
          JOINT Bip01_Spine2
          {
            OFFSET 8.04367 -0.00639343 0
            CHANNELS 6 Xposition Yposition Zposition Zrotation Xrotation Yrotation
            JOINT Bip01_Spine3
            {
              OFFSET 8.04304 -0.00831222 0
              CHANNELS 6 Xposition Yposition Zposition Zrotation Xrotation Yrotation
              JOINT Bip01_Neck
              {
                OFFSET 10.6685 1.06813 0
                CHANNELS 6 Xposition Yposition Zposition Zrotation Xrotation Yrotation
                JOINT Bip01_R_Clavicle
                {
                  OFFSET -3.21661 -4.89635 -9.04802
                  CHANNELS 6 Xposition Yposition Zposition Zrotation Xrotation Yrotation
                  JOINT Bip01_R_UpperArm
                  {
                    OFFSET 19.0492 0 0
                    CHANNELS 6 Xposition Yposition Zposition Zrotation Xrotation Yrotation
                    JOINT Bip01_R_Forearm
                    {
                      OFFSET 10.3706 0 0
                      CHANNELS 6 Xposition Yposition Zposition Zrotation Xrotation Yrotation
                      JOINT Bip01_R_Hand
                      {
                        OFFSET 22.8632 0 0
                        CHANNELS 6 Xposition Yposition Zposition Zrotation Xrotation Yrotation
                        JOINT Bip01_R_Finger0
                        {
                          OFFSET 6.48259 0.103651 0.504496
                          CHANNELS 6 Xposition Yposition Zposition Zrotation Xrotation Yrotation
                          JOINT Bip01_R_Finger01
                          {
                            OFFSET 3.66847 0 0
                            CHANNELS 6 Xposition Yposition Zposition Zrotation Xrotation Yrotation
                            End Site
                            {
                              OFFSET 0 0 0
                            }
                          }
                        }
                      }
                    }
                  }
                }
                JOINT Bip01_L_Clavicle
                {
                  OFFSET -3.21661 -4.89641 9.04797
                  CHANNELS 6 Xposition Yposition Zposition Zrotation Xrotation Yrotation
                  JOINT Bip01_L_UpperArm
                  {
                    OFFSET 19.0492 0 0
                    CHANNELS 6 Xposition Yposition Zposition Zrotation Xrotation Yrotation
                    JOINT Bip01_L_Forearm
                    {
                      OFFSET 10.3706 0 0
                      CHANNELS 6 Xposition Yposition Zposition Zrotation Xrotation Yrotation
                      JOINT Bip01_L_Hand
                      {
                        OFFSET 22.8631 0 0
                        CHANNELS 6 Xposition Yposition Zposition Zrotation Xrotation Yrotation
                        JOINT Bip01_L_Finger0
                        {
                          OFFSET 6.48257 0.103655 -0.504492
                          CHANNELS 6 Xposition Yposition Zposition Zrotation Xrotation Yrotation
                          JOINT Bip01_L_Finger01
                          {
                            OFFSET 3.66844 0 0
                            CHANNELS 6 Xposition Yposition Zposition Zrotation Xrotation Yrotation
                            End Site
                            {
                              OFFSET 0 0 0
                            }
                          }
                        }
                      }
                    }
                  }
                }
                JOINT Bip01_Neck1
                {
                  OFFSET 7.52459 -0.00656509 0
                  CHANNELS 6 Xposition Yposition Zposition Zrotation Xrotation Yrotation
                  JOINT Bip01_Neck2
                  {
                    OFFSET 8.4783 -0.00588226 0
                    CHANNELS 6 Xposition Yposition Zposition Zrotation Xrotation Yrotation
                    JOINT Bip01_Head
                    {
                      OFFSET 8.41606 0 0
                      CHANNELS 6 Xposition Yposition Zposition Zrotation Xrotation Yrotation
                      JOINT EyesBlue
                      {
                        OFFSET 0 0 0
                        CHANNELS 6 Xposition Yposition Zposition Zrotation Xrotation Yrotation
                        JOINT EyesBlue_2
                        {
                          OFFSET 0 -0.500007 0
                          CHANNELS 6 Xposition Yposition Zposition Zrotation Xrotation Yrotation
                          End Site
                          {
                            OFFSET 0 0 0
                          }
                        }
                      }
                      JOINT Bip01_Head2_Eyeleds
                      {
                        OFFSET 6.52751 7.61746 2.2e-005
                        CHANNELS 6 Xposition Yposition Zposition Zrotation Xrotation Yrotation
                        End Site
                        {
                          OFFSET 0 0 0
                        }
                      }
                      JOINT Bip01_Head_Muzzle
                      {
                        OFFSET 2.88628 13.9448 3.88994
                        CHANNELS 6 Xposition Yposition Zposition Zrotation Xrotation Yrotation
                        End Site
                        {
                          OFFSET 0 0 0
                        }
                      }
                      JOINT Bip01_Head1_Jaw
                      {
                        OFFSET 0.271065 1.32405 0
                        CHANNELS 6 Xposition Yposition Zposition Zrotation Xrotation Yrotation
                        JOINT _Bip01_Head11_TungeControler
                        {
                          OFFSET 4.61616 5.82872 0
                          CHANNELS 6 Xposition Yposition Zposition Zrotation Xrotation Yrotation
                          JOINT _Bip01_Ponytail3_tunge
                          {
                            OFFSET 5.17785 2.98805 0
                            CHANNELS 6 Xposition Yposition Zposition Zrotation Xrotation Yrotation
                            JOINT Bip01_Ponytail31
                            {
                              OFFSET 5.57569 0 0
                              CHANNELS 6 Xposition Yposition Zposition Zrotation Xrotation Yrotation
                              JOINT Bip01_Ponytail32
                              {
                                OFFSET 2.93165 0 0
                                CHANNELS 6 Xposition Yposition Zposition Zrotation Xrotation Yrotation
                                JOINT Bip01_Ponytail3Nub
                                {
                                  OFFSET 3.30155 0 0
                                  CHANNELS 6 Xposition Yposition Zposition Zrotation Xrotation Yrotation
                                  End Site
                                  {
                                    OFFSET 0 0 0
                                  }
                                }
                              }
                            }
                          }
                        }
                        JOINT Bip01_Head_JawNub
                        {
                          OFFSET 15.5776 -0.000389099 0
                          CHANNELS 6 Xposition Yposition Zposition Zrotation Xrotation Yrotation
                          End Site
                          {
                            OFFSET 0 0 0
                          }
                        }
                      }
                      JOINT Bip01_Ponytail2
                      {
                        OFFSET 9.40334 1.03973 -6.51764
                        CHANNELS 6 Xposition Yposition Zposition Zrotation Xrotation Yrotation
                        JOINT Bip01_Ponytail21
                        {
                          OFFSET 2.77018 -0.00640106 1.33514e-005
                          CHANNELS 6 Xposition Yposition Zposition Zrotation Xrotation Yrotation
                          End Site
                          {
                            OFFSET 0 0 0
                          }
                        }
                      }
                      JOINT Bip01_Ponytail1
                      {
                        OFFSET 9.40368 1.03969 6.51768
                        CHANNELS 6 Xposition Yposition Zposition Zrotation Xrotation Yrotation
                        JOINT Bip01_Ponytail11
                        {
                          OFFSET 2.77018 -0.00640487 0
                          CHANNELS 6 Xposition Yposition Zposition Zrotation Xrotation Yrotation
                          End Site
                          {
                            OFFSET 0 0 0
                          }
                        }
                      }
                    }
                  }
                }
              }
            }
          }
        }
      }
    }
  }
}
MOTION
Frames:	4
Frame Time:	0.0333333
0 0 0 -0 -90 -0 5.9e-005 -28.7019 44.8854 89.9996 0.000322104 100.963 0 0 0 -90 -3.50835e-015 -90 -6.47433 -3.86247 -0.000102 123.962 0.001964 -0.000599 8.89589 -0.007942 7.7e-005 -7.66468 0.001238 0.001415 10.2239 -0.007621 0.00018 8.3814 0.002059 0.001777 9.85422 -0.005924 9.9e-005 19.1996 0.000151 0.000107 8.04664 -0.005523 0.000129 28.6998 0.002767 0.001639 1.5e-005 -1.1e-005 -8.75617 -111.878 -3.73282 159.946 19.7638 1e-006 1e-006 -73.1424 0.00022 0.001487 18.6534 1e-006 1e-006 -1.26838 -2.29953 1.51461 5.09143 13.9567 3.55271e-015 115.644 10.3597 7.90975 4.28801 -1.06581e-014 -1.06581e-014 42 2.38721e-005 -1.34032e-006 3.85803 -1.2e-005 1.00001e-006 -45 -4.1591e-005 -2.70287e-005 -1.1e-005 1.1e-005 8.75617 -130.961 1.42445 -161.735 19.7638 4e-006 -7.10543e-015 -74.9689 0.000349447 0.002647 18.6534 7.10543e-015 3.55271e-015 10.6668 1.48226 2.4076 5.09144 13.9567 -1.07116e-006 86.6433 -10.3597 -7.90974 4.288 -1.77636e-014 1e-006 42 -1.91794e-005 -2.78023e-007 3.858 1e-006 -1e-006 -2.5 -2.26032e-005 9.53241e-008 9.14777 -0.006317 6.6e-005 -4.95268 0.000716 0.000781 8.04417 -0.006294 9.5e-005 4.50177 0.001336 0.001235 8.04447 -0.006301 8.6e-005 7.97456 0.001772 0.001541 8.04243 -0.008205 2.4e-005 -8.31011 0.000839999 0.000971 10.6696 1.06798 6.00001e-006 -2.66314 -2.68651e-010 7.00003e-006 -4.06491 -4.21982 -9.04791 -177.385 -74.417 129.499 19.0492 -1e-006 1e-006 88.8186 -0.761777 -107.173 10.3706 1e-006 4.08562e-014 -114.091 -0.000518996 0.00247025 22.8631 1e-006 2.4869e-014 -10.3755 14.9614 -9.91211 6.48256 0.103653 0.504495 -28.8508 -12.085 -9.77618 3.66843 3.20188e-013 1e-006 40.107 -1.06172e-005 1.95688e-005 -4.06474 -4.21969 9.04774 -177.38 74.4165 -129.502 19.0492 -1e-006 5e-006 88.7908 0.790273 107.13 10.3706 -1e-006 3.73035e-014 -114.6 -0.000855266 0.0038757 22.8631 7.10543e-015 -1.77636e-014 -8.64045 -11.9118 11.1061 6.48256 0.103651 -0.504495 -28.8506 12.085 9.77752 3.66843 -1.39533e-012 -1e-006 40.107 -5.22502e-005 4.1343e-005 7.52716 -0.006629 3.7e-005 9.501 0.000677 0.000573 8.47204 -0.005931 2.3e-005 -26.0001 0.000449003 0.000718 8.41605 3e-006 2.19833e-015 -93.4967 -0.002082 0.002173 -3e-006 3e-006 -3e-006 -23.1098 1.37701e-015 90 -4.76843e-007 -0.500002 9.53674e-006 180 90 -90 0 0 0 -99.049 7.01671e-015 -180 5.47722 13.499 3.88993 -22.989 1.37021e-015 90 0 0 0 -85.3358 -7.01671e-015 -180 0 0 0 -162.289 1.64849e-005 -5.26484e-006 0 0 0 170.24 -2.71518e-005 1.28863e-005 0 0 0 1.83152 -1.73175e-010 5.49289e-011 0 0 0 -17.6007 -2.00648e-009 0.00865976 0 0 0 -26.2436 0.00382408 -0.00776834 15.5776 -0.000396 -7e-006 0 1.94126e-018 -0 9.40587 1.0411 -6.51596 70.3397 -28.946 146.584 2.76732 -0.003047 -0.005001 -39.6035 50.8656 39.8733 9.40621 1.04106 6.51599 70.3399 28.946 -146.584 2.76732 -0.003095 0.004978 -39.6037 -50.8656 -39.8733 
0 0 0 -0 -90 -0 0.177883 -28.7019 44.9049 90.104 0.0200183 100.962 0 0 0 -89.9957 -0.374719 -88.7611 -6.4719 -3.86247 -0.146274 123.457 -1.08211 1.17465 8.89589 -0.007942 7.7e-005 -7.66467 0.00300782 1.93905 10.2239 -0.007621 0.00018 8.38137 -0.000504204 -1.93595 9.85422 -0.005924 9.9e-005 19.1993 -2.47745e-005 -1.93609 8.04664 -0.005523 0.000129 28.6995 -0.000455461 -1.93586 1.5e-005 -1.1e-005 -8.75617 -109.843 -3.51048 161.008 19.7638 1e-006 1e-006 -70.5478 0.00028709 0.00147552 18.6534 1e-006 1e-006 4.16636 -1.80119 1.39527 5.09143 13.9567 7.10543e-015 109.902 10.3018 7.85418 4.28801 -3.55271e-015 0 42 2.86597e-005 -1.54088e-006 3.85803 -1.2e-005 1.00001e-006 -45 -4.50909e-005 -3.02565e-005 -1.1e-005 1.1e-005 8.75617 -130.466 2.47084 -160.744 19.7638 4e-006 3.55271e-015 -73.3922 0.000422174 0.00263639 18.6534 -1.77636e-014 0 11.5642 1.73678 2.20222 5.09144 13.9567 -1.06702e-006 84.7209 -10.3622 -7.91925 4.288 -2.4869e-014 1e-006 42 -2.04042e-005 -2.67567e-007 3.858 1e-006 -1e-006 -2.5 -2.24154e-005 1.4824e-007 9.14432 -0.006317 0.206721 -4.82899 0.114261 1.18976 8.04417 -0.006294 9.5e-005 4.76576 -0.00226034 -0.774071 8.04447 -0.006301 8.6e-005 8.33528 -0.0015163 -0.618175 8.04243 -0.008205 2.4e-005 -8.41895 0.00146666 -0.773915 10.6696 1.06798 5.99131e-006 -2.62238 0.00389314 0.893864 -3.90194 -4.21714 -9.1198 -173.691 -74.3339 133.413 19.0492 -1e-006 1e-006 87.3102 3.28461 -107.199 10.3706 1e-006 3.19744e-014 -112.93 -0.000493517 0.00246907 22.8631 1e-006 2.4869e-014 -10.7577 13.2275 -8.47841 6.48256 0.103653 0.504495 -28.7613 -12.1496 -9.74021 3.66843 1.35003e-013 1e-006 40.107 -2.9161e-006 1.34621e-005 -4.23278 -4.21549 8.9715 178.808 74.4323 -125.624 19.0492 -1e-006 5e-006 89.4345 -3.3028 107.505 10.3706 -1e-006 3.55271e-014 -113.019 -0.00079818 0.00387644 22.8631 -7.10543e-015 1.24345e-014 -7.77386 -12.4322 5.45016 6.48256 0.103651 -0.504495 -28.8505 12.0849 9.77752 3.66843 9.94983e-013 -1e-006 40.107 5.13288e-005 -4.59967e-005 7.52716 -0.006629 3.7e-005 9.65751 -0.0126891 -1.11346 8.47204 -0.005931 2.3e-005 -26.685 0.000104369 0.00138955 8.41605 3e-006 3.90799e-014 -94.1266 0.253987 3.97762 -3e-006 3e-006 -3e-006 -23.1098 1.37701e-015 90 -4.77641e-007 -0.500002 9.53662e-006 180 90 -90 0 0 0 -99.049 7.01671e-015 -180 5.8232 13.5426 3.88993 -22.989 1.37021e-015 90 0 0 0 -75.6692 -1.52588e-005 -180 0 0 0 -162.289 2.25469e-005 -6.91836e-006 0 0 0 170.24 -2.84977e-005 1.30362e-005 0 0 0 1.83152 4.87824e-007 -7.08122e-008 0 0 0 -17.65 3.06338e-006 5.23525e-007 0 0 0 -26.1943 -8.58577e-007 -6.25932e-007 15.5776 -0.000396 -6.99996e-006 -1.50866e-033 4.34841e-016 1.98785e-016 9.40587 1.0411 -6.51596 70.3397 -28.946 146.584 2.76732 -0.003047 -0.005001 -39.6035 50.8656 39.8733 9.40621 1.04106 6.51599 70.3399 28.946 -146.584 2.76732 -0.003095 0.004978 -39.6037 -50.8656 -39.8733 
0 0 0 -0 -90 -0 0.505445 -28.7019 44.9163 90.2726 0.0527852 100.961 0 0 0 -89.9998 -3.01841e-005 -86.5861 -6.46029 -3.86247 -0.385481 122.724 -2.89506 3.04861 8.89589 -0.007942 7.7e-005 -7.66457 0.00515815 5.07509 10.2239 -0.007621 0.00018 8.38155 -0.00312387 -5.07427 9.85422 -0.005924 9.9e-005 19.1987 -0.00221988 -5.07397 8.04664 -0.005523 0.000129 28.6995 -0.00323386 -5.07418 1.5e-005 -1.1e-005 -8.75617 -107.982 -2.54229 162.483 19.7638 1e-006 1e-006 -67.7754 0.000358121 0.0014599 18.6534 1e-006 1e-006 8.80232 -1.17453 0.954331 5.09143 13.9567 3.55271e-015 104.387 10.2791 7.82976 4.28801 -1.06581e-014 7.10543e-015 42 2.87812e-005 -1.667e-006 3.85803 -1.2e-005 1.00001e-006 -45 -4.52571e-005 -3.02434e-005 -1.1e-005 1.1e-005 8.75617 -129.795 4.03542 -158.974 19.7638 4e-006 7.10543e-015 -71.8629 0.000492402 0.0026242 18.6534 7.10543e-015 0 12.4536 2.20734 1.72056 5.09144 13.9567 -1.05584e-006 82.9929 -10.3615 -7.91708 4.288 -7.10543e-015 1e-006 42 -1.97155e-005 -2.86074e-007 3.858 1e-006 -1e-006 -2.5 -2.27061e-005 1.19096e-007 9.12801 -0.006317 0.544709 -4.63527 0.299411 3.0909 8.04417 -0.006294 9.5e-005 5.16447 -0.0142396 -2.02706 8.04447 -0.006301 8.6e-005 8.87895 -0.0153903 -1.62197 8.04243 -0.008205 2.4e-005 -8.58179 0.0048719 -2.02825 10.6696 1.06798 5.97841e-006 -2.54232 0.0133132 2.60659 -3.63182 -4.21347 -9.23065 -167.784 -74.0488 139.564 19.0492 -1e-006 1e-006 84.3325 7.72917 -106.679 10.3706 1e-006 1.77636e-014 -112.633 -0.000505075 0.00246035 22.8631 1e-006 2.13163e-014 -10.678 10.4666 -5.65413 6.48256 0.103653 0.504495 -28.9296 -12.026 -9.80883 3.66843 5.81757e-014 1e-006 40.107 2.57878e-006 9.43609e-006 -4.50409 -4.20893 8.83964 172.612 74.3161 -119.203 19.0492 -1e-006 5e-006 91.7306 -7.83108 108.375 10.3706 -1e-006 4.44089e-014 -111.229 -0.000727583 0.00387953 22.8631 7.10543e-015 -3.55271e-015 -6.04591 -13.5475 1.13756 6.48256 0.103651 -0.504495 -28.8505 12.0849 9.77752 3.66843 9.36585e-013 -1e-006 40.107 4.91101e-005 -4.3642e-005 7.52716 -0.006629 3.7e-005 9.89194 -0.0414142 -2.9353 8.47204 -0.005931 2.30001e-005 -27.7174 -0.000139191 0.00180429 8.41605 3e-006 8.68194e-014 -94.9905 0.654072 10.4716 -3e-006 3e-006 -3e-006 -23.1098 1.37701e-015 90 -4.79147e-007 -0.500002 9.53592e-006 180 90 -90 0 0 0 -99.049 7.01671e-015 -180 6.16917 13.5863 3.88993 -22.989 1.37021e-015 90 0 0 0 -66.0026 -7.01671e-015 -180 0 0 0 -162.289 2.3856e-005 -6.15749e-006 0 0 0 170.24 -1.7341e-005 1.3662e-005 0 0 0 1.83152 -3.88764e-006 1.69482e-007 0 0 0 -17.65 4.73722e-007 -4.2827e-007 0 0 0 -26.1943 -7.75972e-007 -8.03255e-007 15.5776 -0.000396 -6.99998e-006 0 3.57812e-015 -0 9.40587 1.0411 -6.51596 70.3397 -28.946 146.584 2.76732 -0.003047 -0.005001 -39.6035 50.8656 39.8733 9.40621 1.04106 6.51599 70.3399 28.946 -146.584 2.76732 -0.003095 0.004978 -39.6037 -50.8656 -39.8733 
0 0 0 -0 -90 -0 0.914337 -28.7019 44.9208 90.4517 0.0876218 100.961 0 0 0 -90 -2.0108e-005 -84.1174 -6.43691 -3.86247 -0.663361 122.409 -5.002 5.16285 8.89589 -0.007942 7.7e-005 -7.66457 0.0077445 8.41508 10.2239 -0.007621 0.00018 8.38168 -0.0056912 -8.41193 9.85422 -0.005924 9.9e-005 19.1981 -0.00532163 -8.41153 8.04664 -0.005523 0.000129 28.6994 -0.00563841 -8.41251 1.5e-005 -1.1e-005 -8.75617 -106.597 -1.11467 164.104 19.7638 1e-006 1e-006 -65.0335 0.000427549 0.0014411 18.6534 1e-006 1e-006 12.9189 -0.591092 0.272179 5.09143 13.9567 -3.55271e-015 99.351 10.2716 7.82652 4.28801 7.10543e-015 0 42 2.8306e-005 -1.77197e-006 3.85803 -1.2e-005 1.00001e-006 -45 -4.49793e-005 -2.98249e-005 -1.1e-005 1.1e-005 8.75617 -129.236 5.80695 -156.894 19.7638 4e-006 3.55271e-015 -70.1585 0.000570254 0.00260841 18.6534 1.06581e-014 -3.55271e-015 13.0689 2.67535 1.05057 5.09144 13.9567 -1.04427e-006 81.4695 -10.3598 -7.90991 4.288 -3.19744e-014 1e-006 42 -1.95713e-005 -3.02244e-007 3.858 1e-006 -1e-006 -2.5 -2.28362e-005 1.1359e-007 9.09504 -0.006317 0.937316 -4.52192 0.513539 4.90327 8.04417 -0.006294 9.5e-005 5.37463 -0.0272877 -3.36377 8.04447 -0.006301 8.6e-005 9.1658 -0.0299316 -2.68914 8.04243 -0.008205 2.4e-005 -8.66753 0.00865932 -3.36492 10.6696 1.06798 5.96571e-006 -2.48414 0.023475 4.61754 -3.31229 -4.21195 -9.34989 -161.239 -73.5163 146.469 19.0492 -1e-006 1e-006 81.4486 13.1124 -105.922 10.3706 1e-006 1.24345e-014 -110.084 -0.000445339 0.0024608 22.8631 1e-006 -1.77636e-015 -11.2719 7.79699 -2.94501 6.48256 0.103653 0.504495 -28.7839 -12.1315 -9.74989 3.66843 1.95399e-014 1e-006 40.107 6.54683e-006 6.87543e-006 -4.81021 -4.20505 8.67793 165.706 73.9447 -112.113 19.0492 -1e-006 5e-006 94.7161 -13.2001 109.463 10.3706 -1e-006 4.9738e-014 -107.266 -0.000587556 0.00387986 22.8631 3.55272e-015 3.55271e-015 -5.13329 -14.7707 -3.20603 6.48256 0.103651 -0.504495 -28.8505 12.0849 9.77752 3.66843 6.74128e-013 -1e-006 40.107 3.85811e-005 -3.39851e-005 7.52716 -0.006629 3.69999e-005 10.0143 -0.0638119 -5.04632 8.47204 -0.005931 2.30001e-005 -28.2618 0.000210628 0.00111751 8.41605 3e-006 1.42109e-013 -95.3124 1.21501 17.9748 -3e-006 3e-006 -3e-006 -23.1098 1.37701e-015 90 -4.80653e-007 -0.500002 9.53441e-006 180 90 -90 0 0 0 -99.049 -7.01671e-015 -180 6.51515 13.6299 3.88993 -22.989 1.37021e-015 90 0 0 0 -56.336 -7.01671e-015 -180 0 0 0 -162.289 1.65869e-005 -5.98751e-006 0 0 0 170.24 -2.59522e-005 1.25199e-005 0 0 0 1.83152 3.0063e-007 1.06459e-007 0 0 0 -17.65 -1.60402e-006 -1.10059e-006 0 0 0 -26.1943 -5.01257e-007 -8.18823e-007 15.5776 -0.000396 -6.99998e-006 0 3.97569e-015 -0 9.40587 1.0411 -6.51596 70.3397 -28.946 146.584 2.76732 -0.003047 -0.005001 -39.6035 50.8656 39.8733 9.40621 1.04106 6.51599 70.3399 28.946 -146.584 2.76732 -0.003095 0.004978 -39.6037 -50.8656 -39.8733 
